#!OML:ASF H:\ManfredETheater\Project 1\Capture day 1\Session 1\subject.ASF
:FULLY-SPECIFIED
:DEGREES
125
root 2.46762 16.5139 -11.5415 -186.144 -23.8672 185.812
lowerback 15.9285 3.21183 0.0914075
upperback 4.40734 3.86015 1.62302
thorax -4.33026 1.69446 0.925969
lowerneck -3.27817 -7.95889 -10.6062
upperneck 8.62831 -10.8921 8.12036
head 4.13584 -5.43003 3.60609
rclavicle -5.31749e-014 -1.19271e-014
rhumerus 19.0448 -9.04124 -27.7755
rradius 71.1339
rwrist -1.48577
rhand -24.2606 -2.50811
rfingers 7.12502
rthumb 2.22563 -32.4763
lclavicle -5.31749e-014 -1.19271e-014
lhumerus -77.3102 -7.97928 82.9728
lradius 84.4738
lwrist 20.7395
lhand -21.4807 -11.0492
lfingers 7.12502
lthumb 4.91019 18.8739
rfemur -24.8463 -6.89631 18.4959
rtibia 54.0836
rfoot -16.9672 -9.81427
rtoes -32.8667
lfemur -40.3391 -6.35647 -15.0763
ltibia 57.7301
lfoot -9.50255 -9.09959
ltoes -3.64026
126
root 2.44555 16.278 -11.8863 -186.048 -24.7507 186.058
lowerback 16.2318 3.01858 0.306516
upperback 3.94912 3.69945 1.67556
thorax -4.96504 1.63147 0.865621
lowerneck -3.01112 -8.04098 -10.514
upperneck 7.99857 -11.0038 8.32215
head 3.91778 -5.47679 3.66616
rclavicle 7.52897e-014 -1.47101e-014
rhumerus 18.6509 -8.45856 -29.85
rradius 74.5213
rwrist -0.726754
rhand -24.584 -2.29136
rfingers 7.12502
rthumb 1.91337 -32.2625
lclavicle 7.52897e-014 -1.47101e-014
lhumerus -74.4586 -6.24836 83.873
lradius 84.1956
lwrist 21.707
lhand -22.1609 -10.4319
lfingers 7.12502
lthumb 4.25344 19.5054
rfemur -25.4221 -7.54319 18.9994
rtibia 57.6563
rfoot -20.2936 -11.7192
rtoes -33.6705
lfemur -41.5663 -7.0702 -14.9454
ltibia 61.4747
lfoot -12.9173 -7.88813
ltoes -3.72561
127
root 2.42844 16.0776 -12.2199 -185.925 -25.6422 186.227
lowerback 16.6398 2.87563 0.479477
upperback 3.56888 3.58569 1.68187
thorax -5.57675 1.58475 0.770953
lowerneck -2.83913 -8.18755 -10.4861
upperneck 7.35509 -11.1982 8.65552
head 3.73131 -5.56038 3.76667
rclavicle -3.57812e-015 8.34896e-015
rhumerus 17.6316 -7.78129 -32.0816
rradius 78.348
rwrist 0.166541
rhand -25.1078 -2.11137
rfingers 7.12502
rthumb 1.40748 -32.0865
lclavicle -3.57812e-015 8.34896e-015
lhumerus -70.9454 -4.61136 84.8651
lradius 83.331
lwrist 22.5985
lhand -22.7126 -9.95742
lfingers 7.12502
lthumb 3.72067 19.9898
rfemur -26.0287 -8.20936 19.4813
rtibia 61.1037
rfoot -22.7706 -13.3077
rtoes -33.8459
lfemur -42.7484 -7.7167 -14.8006
ltibia 65.0792
lfoot -15.6719 -6.96858
ltoes -3.25889
128
root 2.41458 15.9169 -12.5455 -185.837 -26.4794 186.336
lowerback 17.124 2.80138 0.632677
upperback 3.30101 3.54328 1.64391
thorax -6.11152 1.56572 0.626802
lowerneck -2.7811 -8.39365 -10.5412
upperneck 6.72328 -11.4697 9.14008
head 3.58973 -5.67854 3.91515
rclavicle 2.13197e-014 -4.77083e-015
rhumerus 15.9815 -6.94876 -34.4169
rradius 82.496
rwrist 1.08457
rhand -25.8504 -1.92864
rfingers 7.12502
rthumb 0.690255 -31.9073
lclavicle 2.13197e-014 -4.77083e-015
lhumerus -66.9107 -3.14155 85.9714
lradius 81.9843
lwrist 23.2679
lhand -23.3195 -9.52248
lfingers 7.12502
lthumb 3.13456 20.4342
rfemur -26.5111 -8.83526 19.9308
rtibia 64.2903
rfoot -24.4679 -14.5861
rtoes -34.1377
lfemur -43.6566 -8.18792 -14.6303
ltibia 68.2648
lfoot -17.8771 -6.49132
ltoes -2.79367
129
root 2.40199 15.7957 -12.8664 -185.776 -27.2064 186.359
lowerback 17.6209 2.80815 0.744417
upperback 3.14719 3.58402 1.5486
thorax -6.53197 1.58208 0.429028
lowerneck -2.80986 -8.64922 -10.6351
upperneck 6.09504 -11.8056 9.73054
head 3.48108 -5.82683 4.09272
rclavicle -2.65378e-014 1.68967e-014
rhumerus 13.7622 -5.86917 -36.8191
rradius 86.7577
rwrist 1.93047
rhand -26.822 -1.7014
rfingers 7.12502
rthumb -0.248123 -31.681
lclavicle -2.65378e-014 1.68967e-014
lhumerus -62.545 -1.88468 87.1615
lradius 80.2356
lwrist 23.4645
lhand -23.9143 -9.28489
lfingers 7.12502
lthumb 2.56008 20.6795
rfemur -26.7765 -9.37996 20.299
rtibia 67.1298
rfoot -25.5455 -15.582
rtoes -34.84
lfemur -44.1209 -8.35871 -14.4899
ltibia 70.8619
lfoot -19.8502 -6.27604
ltoes -2.99531
130
root 2.38915 15.7095 -13.1857 -185.675 -27.8046 186.244
lowerback 18.048 2.89313 0.754408
upperback 3.08508 3.69428 1.38699
thorax -6.81857 1.63119 0.205831
lowerneck -2.89748 -8.92908 -10.7361
upperneck 5.46634 -12.1717 10.3755
head 3.39222 -5.99053 4.28225
rclavicle -2.55438e-014 1.19271e-014
rhumerus 11.1158 -4.45313 -39.2886
rradius 90.8543
rwrist 2.66331
rhand -27.9592 -1.35678
rfingers 7.12502
rthumb -1.34653 -31.3323
lclavicle -2.55438e-014 1.19271e-014
lhumerus -58.0913 -0.899049 88.4566
lradius 78.2753
lwrist 23.1062
lhand -24.6167 -9.28744
lfingers 7.12502
lthumb 1.88176 20.684
rfemur -26.8464 -9.827 20.5124
rtibia 69.6124
rfoot -26.1441 -16.1207
rtoes -35.6942
lfemur -44.085 -8.23579 -14.4092
ltibia 72.7352
lfoot -21.5714 -6.38514
ltoes -2.83519
131
root 2.3755 15.6559 -13.5038 -185.58 -28.2588 186.069
lowerback 18.4333 3.03304 0.725507
upperback 3.08696 3.85722 1.18101
thorax -7.01212 1.70421 -0.053673
lowerneck -3.03451 -9.20727 -10.8093
upperneck 4.86146 -12.5328 11.0128
head 3.31944 -6.15362 4.46205
rclavicle 5.889e-014 -2.62396e-014
rhumerus 8.21734 -2.6168 -41.8442
rradius 94.5045
rwrist 3.256
rhand -29.1388 -0.890464
rfingers 7.12502
rthumb -2.48572 -30.8557
lclavicle 5.889e-014 -2.62396e-014
lhumerus -53.7835 -0.249098 89.8479
lradius 76.294
lwrist 22.1174
lhand -25.3782 -9.54875
lfingers 7.12502
lthumb 1.1463 20.4279
rfemur -26.722 -10.1745 20.633
rtibia 71.7577
rfoot -26.2522 -16.314
rtoes -36.8181
lfemur -43.5171 -7.79155 -14.3413
ltibia 73.9318
lfoot -23.321 -6.70183
ltoes -2.34376
132
root 2.35955 15.6287 -13.8215 -185.298 -28.5984 185.744
lowerback 18.643 3.20441 0.569643
upperback 3.08478 4.03291 0.915931
thorax -7.11852 1.78853 -0.301825
lowerneck -3.20969 -9.46051 -10.8459
upperneck 4.31307 -12.8571 11.581
head 3.26192 -6.30122 4.61461
rclavicle -6.41081e-014 8.74653e-015
rhumerus 5.23709 -0.332017 -44.5166
rradius 97.4365
rwrist 3.75965
rhand -30.1981 -0.195927
rfingers 7.12502
rthumb -3.50877 -30.1468
lclavicle -6.41081e-014 8.74653e-015
lhumerus -49.8378 -0.0457509 91.3496
lradius 74.5416
lwrist 20.7007
lhand -26.2232 -9.9762
lfingers 7.12502
lthumb 0.330194 20.0033
rfemur -26.6657 -10.4583 20.5662
rtibia 73.6889
rfoot -25.836 -16.0909
rtoes -38.1131
lfemur -42.6831 -7.12558 -14.3539
ltibia 74.5577
lfoot -25.1038 -7.12125
ltoes -1.72141
